<svg fill="#000000" xmlns="http://www.w3.org/2000/svg"  viewBox="0 0 24 24" width="24px" height="24px"><path d="M 21.800781 0 L 2.199219 0 C 1 0 0 1 0 2.199219 L 0 21.800781 C 0 23 1 24 2.199219 24 L 21.800781 24 C 23 24 24 23 24 21.800781 L 24 2.199219 C 24 1 23 0 21.800781 0 Z M 7.398438 16 L 4.601563 16 C 4.398438 16 4.199219 15.699219 4.300781 15.5 L 7.199219 10.101563 C 7.300781 10 7.300781 9.898438 7.199219 9.800781 L 5.398438 6.5 C 5.300781 6.300781 5.398438 6 5.601563 6 L 8.398438 6 C 8.5 6 8.601563 6.101563 8.699219 6.199219 L 10.800781 9.898438 C 10.898438 10 10.898438 10.101563 10.800781 10.199219 L 7.699219 15.898438 C 7.699219 15.898438 7.5 16 7.398438 16 Z M 19.601563 3.5 L 14 13.800781 C 13.898438 13.898438 13.898438 14 14 14.101563 L 17.601563 20.5 C 17.699219 20.699219 17.601563 21 17.300781 21 L 14.5 21 C 14.398438 21 14.300781 20.898438 14.199219 20.800781 L 10.398438 14.101563 C 10.300781 14 10.300781 13.898438 10.398438 13.800781 L 16.199219 3.101563 C 16.300781 3.101563 16.5 3 16.601563 3 L 19.398438 3 C 19.601563 3 19.699219 3.300781 19.601563 3.5 Z"/></svg>